@startuml

hide empty members
allowmixing

title "Тесты"

class TestService

interface TestRepository

class Test {
    + id: Int
    + title: String
    + minimumPoints: Float
    + lowQuestions: Int
    + mediumQuestions: Int
    + highQuestions: Int
    + discipline: <b>Discipline</b>
    + versions: List<TestVersion>
}

class TestVersion {
    + id: Int
    + questions: List<<b>Question</b>>
}

Test *- TestVersion

TestService ..> Test
TestService ...> TestRepository
'TestService ..> TestVersion


'class TestRepositoryImpl implements TestRepository
'class TestEntity
'class TestVersionEntity
'TestRepositoryImpl ..> TestEntity
''TestRepositoryImpl ..> TestVersionEntity
'TestEntity *- TestVersionEntity

class TestPdfExportService
TestPdfExportService ..> Test
TestService <. TestPdfExportService
'TestVersion <-- TestPdfExportService

Test <.. TestRepository
'TestVersion <.. TestRepository

@enduml